<svg xmlns="http://www.w3.org/2000/svg" viewBox="0 0 190 95" font-family="Georgia, 'Times New Roman', serif">
  <rect x="0" y="0" width="190" height="95" fill="#ffffff"/>

  <g transform="translate(96,12)">
    <rect x="-46" y="-8" width="92" height="16" fill="#1a1a1a"/>
    <text x="0" y="3" text-anchor="middle" font-size="5.5" font-weight="bold" fill="#faf7ef" textLength="80" lengthAdjust="spacingAndGlyphs">BUREAU DE RENSEIGNEMENT DU SECTEUR</text>
  </g>

  <g stroke="#1a1a1a" stroke-width="0.6">
    <line x1="96" y1="20" x2="22" y2="38"/>
    <line x1="96" y1="20" x2="58" y2="38"/>
    <line x1="96" y1="20" x2="96" y2="38"/>
    <line x1="96" y1="20" x2="132" y2="38"/>
    <line x1="96" y1="20" x2="168" y2="38"/>
  </g>

  <g font-size="4.3" font-weight="bold" fill="#1a1a1a" text-anchor="middle">
    <g transform="translate(22,48)">
      <rect x="-17" y="-9" width="34" height="24" fill="#ffffff" stroke="#1a1a1a" stroke-width="0.7"/>
      <text y="-1" textLength="30" lengthAdjust="spacingAndGlyphs">POSTE</text>
      <text y="6" textLength="30" lengthAdjust="spacingAndGlyphs">NORD</text>
    </g>
    <g transform="translate(58,48)">
      <rect x="-17" y="-9" width="34" height="24" fill="#ffffff" stroke="#1a1a1a" stroke-width="0.7"/>
      <text y="-1" textLength="30" lengthAdjust="spacingAndGlyphs">ÉCOUTE</text>
      <text y="6" textLength="30" lengthAdjust="spacingAndGlyphs">RADIO</text>
    </g>
    <g transform="translate(96,48)">
      <rect x="-17" y="-9" width="34" height="24" fill="#ffffff" stroke="#1a1a1a" stroke-width="0.7"/>
      <text y="-1" textLength="30" lengthAdjust="spacingAndGlyphs">INFORMA-</text>
      <text y="6" textLength="30" lengthAdjust="spacingAndGlyphs">TEUR</text>
    </g>
    <g transform="translate(132,48)">
      <rect x="-17" y="-9" width="34" height="24" fill="#ffffff" stroke="#1a1a1a" stroke-width="0.7"/>
      <text y="-1" textLength="30" lengthAdjust="spacingAndGlyphs">POSTE</text>
      <text y="6" textLength="30" lengthAdjust="spacingAndGlyphs">FRONTALIER</text>
    </g>
    <g transform="translate(168,48)">
      <rect x="-17" y="-9" width="34" height="24" fill="#ffffff" stroke="#1a1a1a" stroke-width="0.7"/>
      <text y="-1" textLength="30" lengthAdjust="spacingAndGlyphs">PATROUILLE</text>
      <text y="6" textLength="30" lengthAdjust="spacingAndGlyphs">AVANCÉE</text>
    </g>
  </g>

  <text x="95" y="88" text-anchor="middle" font-size="3.6" font-style="italic" fill="#4a4a4a" textLength="150" lengthAdjust="spacingAndGlyphs">Organigramme simplifié — cinq éléments rattachés au même bureau, sans hiérarchie entre eux</text>
</svg>
